<svg xmlns="http://www.w3.org/2000/svg" xmlns:xlink="http://www.w3.org/1999/xlink" width="150" zoomAndPan="magnify" viewBox="0 0 112.5 112.499997" height="150" preserveAspectRatio="xMidYMid meet" version="1.0"><defs><clipPath id="314bcdd764"><path d="M 0 0 L 112.003906 0 L 112.003906 112.003906 L 0 112.003906 Z M 0 0 " clip-rule="nonzero"/></clipPath><clipPath id="2b16a6662c"><path d="M 17.171875 0 L 94.828125 0 C 99.382812 0 103.75 1.808594 106.972656 5.03125 C 110.191406 8.25 112.003906 12.617188 112.003906 17.171875 L 112.003906 94.828125 C 112.003906 99.382812 110.191406 103.75 106.972656 106.972656 C 103.75 110.191406 99.382812 112.003906 94.828125 112.003906 L 17.171875 112.003906 C 12.617188 112.003906 8.25 110.191406 5.03125 106.972656 C 1.808594 103.75 0 99.382812 0 94.828125 L 0 17.171875 C 0 12.617188 1.808594 8.25 5.03125 5.03125 C 8.25 1.808594 12.617188 0 17.171875 0 Z M 17.171875 0 " clip-rule="nonzero"/></clipPath><clipPath id="35b88d0cc1"><path d="M 2.804688 2.804688 L 108.832031 2.804688 L 108.832031 108.832031 L 2.804688 108.832031 Z M 2.804688 2.804688 " clip-rule="nonzero"/></clipPath><clipPath id="3f1a7ee353"><path d="M 24.589844 31 L 41 31 L 41 81.765625 L 24.589844 81.765625 Z M 24.589844 31 " clip-rule="nonzero"/></clipPath><clipPath id="402713628b"><path d="M 70 31 L 87 31 L 87 81.765625 L 70 81.765625 Z M 70 31 " clip-rule="nonzero"/></clipPath><clipPath id="7e7e650129"><path d="M 30 50 L 53 50 L 53 81.765625 L 30 81.765625 Z M 30 50 " clip-rule="nonzero"/></clipPath><clipPath id="bbc408ff91"><path d="M 58 50 L 81 50 L 81 81.765625 L 58 81.765625 Z M 58 50 " clip-rule="nonzero"/></clipPath><clipPath id="e483ac8f52"><path d="M 43.304688 34.292969 L 68.660156 34.292969 L 68.660156 49.1875 L 43.304688 49.1875 Z M 43.304688 34.292969 " clip-rule="nonzero"/></clipPath><clipPath id="e81dcb08d9"><path d="M 44.925781 43.265625 L 66.695312 43.265625 L 66.695312 55.945312 L 44.925781 55.945312 Z M 44.925781 43.265625 " clip-rule="nonzero"/></clipPath></defs><g clip-path="url(#314bcdd764)"><g clip-path="url(#2b16a6662c)"><path fill="#4a90e2" d="M 0 0 L 112.003906 0 L 112.003906 112.003906 L 0 112.003906 Z M 0 0 " fill-opacity="1" fill-rule="nonzero"/></g></g><g clip-path="url(#35b88d0cc1)"><path fill="#cafdff" d="M 109.195312 56 C 109.195312 57.742188 109.109375 59.480469 108.9375 61.214844 C 108.769531 62.949219 108.511719 64.667969 108.171875 66.378906 C 107.832031 68.085938 107.410156 69.773438 106.90625 71.441406 C 106.398438 73.109375 105.8125 74.746094 105.144531 76.355469 C 104.480469 77.964844 103.734375 79.539062 102.914062 81.078125 C 102.09375 82.613281 101.199219 84.105469 100.230469 85.554688 C 99.261719 87.003906 98.226562 88.398438 97.121094 89.746094 C 96.015625 91.09375 94.847656 92.382812 93.613281 93.613281 C 92.382812 94.847656 91.09375 96.015625 89.746094 97.121094 C 88.398438 98.226562 87.003906 99.261719 85.554688 100.230469 C 84.105469 101.199219 82.613281 102.09375 81.078125 102.914062 C 79.539062 103.734375 77.964844 104.480469 76.355469 105.144531 C 74.746094 105.8125 73.109375 106.398438 71.441406 106.90625 C 69.773438 107.410156 68.085938 107.832031 66.378906 108.171875 C 64.667969 108.511719 62.949219 108.769531 61.214844 108.9375 C 59.480469 109.109375 57.742188 109.195312 56 109.195312 C 54.257812 109.195312 52.519531 109.109375 50.785156 108.9375 C 49.050781 108.769531 47.332031 108.511719 45.621094 108.171875 C 43.914062 107.832031 42.226562 107.410156 40.558594 106.90625 C 38.890625 106.398438 37.253906 105.8125 35.644531 105.144531 C 34.035156 104.480469 32.460938 103.734375 30.925781 102.914062 C 29.386719 102.09375 27.894531 101.199219 26.445312 100.230469 C 24.996094 99.261719 23.601562 98.226562 22.253906 97.121094 C 20.90625 96.015625 19.617188 94.847656 18.386719 93.613281 C 17.152344 92.382812 15.984375 91.09375 14.878906 89.746094 C 13.773438 88.398438 12.738281 87.003906 11.769531 85.554688 C 10.800781 84.105469 9.90625 82.613281 9.085938 81.078125 C 8.265625 79.539062 7.519531 77.964844 6.855469 76.355469 C 6.1875 74.746094 5.601562 73.109375 5.09375 71.441406 C 4.589844 69.773438 4.167969 68.085938 3.828125 66.378906 C 3.488281 64.667969 3.230469 62.949219 3.0625 61.214844 C 2.890625 59.480469 2.804688 57.742188 2.804688 56 C 2.804688 54.257812 2.890625 52.519531 3.0625 50.785156 C 3.230469 49.050781 3.488281 47.332031 3.828125 45.621094 C 4.167969 43.914062 4.589844 42.226562 5.09375 40.558594 C 5.601562 38.890625 6.1875 37.253906 6.855469 35.644531 C 7.519531 34.035156 8.265625 32.460938 9.085938 30.925781 C 9.90625 29.386719 10.800781 27.894531 11.769531 26.445312 C 12.738281 24.996094 13.773438 23.601562 14.878906 22.253906 C 15.984375 20.90625 17.152344 19.617188 18.386719 18.386719 C 19.617188 17.152344 20.90625 15.984375 22.253906 14.878906 C 23.601562 13.773438 24.996094 12.738281 26.445312 11.769531 C 27.894531 10.800781 29.386719 9.90625 30.925781 9.085938 C 32.460938 8.265625 34.035156 7.519531 35.644531 6.855469 C 37.253906 6.1875 38.890625 5.601562 40.558594 5.09375 C 42.226562 4.589844 43.914062 4.167969 45.621094 3.828125 C 47.332031 3.488281 49.050781 3.230469 50.785156 3.0625 C 52.519531 2.890625 54.257812 2.804688 56 2.804688 C 57.742188 2.804688 59.480469 2.890625 61.214844 3.0625 C 62.949219 3.230469 64.667969 3.488281 66.378906 3.828125 C 68.085938 4.167969 69.773438 4.589844 71.441406 5.09375 C 73.109375 5.601562 74.746094 6.1875 76.355469 6.855469 C 77.964844 7.519531 79.539062 8.265625 81.078125 9.085938 C 82.613281 9.90625 84.105469 10.800781 85.554688 11.769531 C 87.003906 12.738281 88.398438 13.773438 89.746094 14.878906 C 91.09375 15.984375 92.382812 17.152344 93.613281 18.386719 C 94.847656 19.617188 96.015625 20.90625 97.121094 22.253906 C 98.226562 23.601562 99.261719 24.996094 100.230469 26.445312 C 101.199219 27.894531 102.09375 29.386719 102.914062 30.925781 C 103.734375 32.460938 104.480469 34.035156 105.144531 35.644531 C 105.8125 37.253906 106.398438 38.890625 106.90625 40.558594 C 107.410156 42.226562 107.832031 43.914062 108.171875 45.621094 C 108.511719 47.332031 108.769531 49.050781 108.9375 50.785156 C 109.109375 52.519531 109.195312 54.257812 109.195312 56 Z M 109.195312 56 " fill-opacity="1" fill-rule="nonzero"/></g><g clip-path="url(#3f1a7ee353)"><path fill="#4a90e2" d="M 26.300781 34.261719 C 26.398438 31.980469 29.128906 30.277344 31.1875 31.394531 C 32.582031 32 33.0625 33.546875 33.175781 34.941406 C 35.5625 34.8125 37.609375 36.882812 37.167969 39.308594 C 38.898438 39.4375 40.722656 40.566406 40.8125 42.460938 C 40.851562 45.050781 40.480469 47.636719 40.074219 50.191406 C 40.164062 51.375 38.046875 51.476562 38.050781 50.273438 C 38.226562 47.667969 38.878906 45.082031 38.734375 42.457031 C 38.566406 41.613281 37.652344 41.546875 36.972656 41.433594 C 36.65625 43.882812 36.695312 46.375 36.320312 48.8125 C 36.242188 49.796875 34.480469 49.761719 34.375 48.753906 C 34.453125 45.277344 34.9375 41.824219 35.046875 38.351562 C 35.238281 37.265625 33.828125 37.167969 33.097656 37.023438 C 33.019531 41.074219 33.203125 45.132812 33.058594 49.175781 C 33.046875 50.234375 31.164062 50.304688 31.101562 49.222656 C 30.917969 44.390625 31.082031 39.546875 30.984375 34.707031 C 31.066406 34.015625 30.585938 33.46875 30.042969 33.128906 C 29.046875 32.925781 28.316406 33.859375 28.335938 34.777344 C 27.871094 40.789062 27.359375 46.800781 26.960938 52.816406 C 26.894531 58.0625 27.835938 63.832031 31.703125 67.699219 C 35.191406 71.367188 39.421875 74.910156 40.371094 80.171875 C 40.597656 81.097656 39.207031 81.664062 38.640625 80.960938 C 37.75 79.089844 37.320312 76.960938 35.960938 75.332031 C 33.171875 71.792969 29.257812 69.136719 27.226562 65.015625 C 25.160156 60.589844 24.589844 55.570312 25.015625 50.738281 C 25.457031 45.25 25.855469 39.753906 26.300781 34.261719 Z M 26.300781 34.261719 " fill-opacity="1" fill-rule="nonzero"/></g><g clip-path="url(#402713628b)"><path fill="#4a90e2" d="M 80.429688 31.476562 C 82.378906 30.269531 85.160156 31.730469 85.4375 33.953125 C 85.761719 36.960938 85.898438 39.984375 86.167969 43 C 86.441406 48.105469 87.402344 53.253906 86.550781 58.363281 C 86.03125 61.488281 85.117188 64.648438 83.210938 67.226562 C 81.007812 70.304688 77.902344 72.582031 75.625 75.597656 C 74.40625 77.183594 74.003906 79.183594 73.164062 80.957031 C 72.589844 81.671875 71.222656 81.125 71.402344 80.203125 C 71.738281 78.605469 72.402344 77.089844 73.140625 75.644531 C 75.667969 71.277344 80.292969 68.566406 82.6875 64.109375 C 84.617188 59.972656 85.101562 55.277344 84.699219 50.769531 C 84.242188 45.324219 83.886719 39.871094 83.394531 34.4375 C 83.390625 33.484375 82.382812 33.238281 81.691406 32.917969 C 81.402344 33.503906 80.75 33.988281 80.804688 34.703125 C 80.742188 39.191406 80.789062 43.683594 80.753906 48.175781 C 80.769531 48.949219 80.738281 50.113281 79.640625 50.03125 C 78.640625 49.988281 78.65625 48.910156 78.671875 48.179688 C 78.664062 44.464844 78.722656 40.75 78.6875 37.035156 C 77.941406 37.152344 76.546875 37.273438 76.738281 38.375 C 76.855469 41.652344 77.257812 44.917969 77.414062 48.199219 C 77.734375 49.28125 76.347656 49.957031 75.578125 49.234375 C 74.980469 46.683594 75.203125 44.019531 74.808594 41.433594 C 74.121094 41.535156 73.195312 41.636719 73.050781 42.484375 C 72.910156 45.097656 73.566406 47.671875 73.742188 50.269531 C 73.777344 51.308594 71.980469 51.457031 71.785156 50.5 C 71.304688 47.84375 70.941406 45.128906 70.980469 42.425781 C 71.082031 40.554688 72.890625 39.421875 74.617188 39.308594 C 74.167969 36.878906 76.21875 34.8125 78.609375 34.929688 C 78.734375 33.601562 79.140625 32.132812 80.429688 31.476562 Z M 80.429688 31.476562 " fill-opacity="1" fill-rule="nonzero"/></g><g clip-path="url(#7e7e650129)"><path fill="#4a90e2" d="M 32.34375 51.09375 C 33.78125 50.292969 35.761719 50.292969 36.980469 51.503906 C 39.296875 53.855469 41.214844 56.582031 43.5625 58.90625 C 46.035156 61.238281 49.496094 63.046875 50.296875 66.640625 C 51.175781 70.964844 51.765625 75.355469 52.691406 79.675781 C 53.011719 80.394531 52.597656 81.285156 51.753906 81.277344 C 50.921875 81.289062 50.75 80.429688 50.617188 79.796875 C 49.695312 75.671875 49.164062 71.460938 48.328125 67.324219 C 47.847656 64.808594 45.59375 63.359375 43.777344 61.820312 C 40.558594 59.351562 38.382812 55.839844 35.539062 52.992188 C 34.648438 52.066406 32.347656 52.828125 32.933594 54.304688 C 34.699219 58.0625 37.1875 61.460938 39.050781 65.171875 C 39.378906 66.285156 37.609375 66.882812 37.160156 65.84375 C 35.199219 62.644531 33.339844 59.375 31.449219 56.136719 C 30.441406 54.546875 30.570312 52.082031 32.34375 51.09375 Z M 32.34375 51.09375 " fill-opacity="1" fill-rule="nonzero"/></g><g clip-path="url(#bbc408ff91)"><path fill="#4a90e2" d="M 75.3125 51.109375 C 77.121094 49.890625 80.113281 50.640625 80.832031 52.800781 C 81.316406 54.308594 80.589844 55.820312 79.808594 57.082031 C 78.039062 59.988281 76.414062 62.980469 74.609375 65.859375 C 74.152344 66.871094 72.449219 66.289062 72.714844 65.199219 C 74.582031 61.496094 77.039062 58.105469 78.832031 54.367188 C 79.488281 52.894531 77.214844 52.0625 76.28125 52.960938 C 73.417969 55.800781 71.246094 59.320312 68.039062 61.808594 C 66.289062 63.296875 64.113281 64.664062 63.53125 67.042969 C 62.546875 71.554688 62.097656 76.179688 60.929688 80.648438 C 60.652344 81.730469 58.703125 81.242188 59.03125 80.171875 C 59.910156 75.664062 60.597656 71.117188 61.5 66.609375 C 62.132812 63.714844 64.628906 61.914062 66.785156 60.148438 C 70.09375 57.59375 72.183594 53.828125 75.3125 51.109375 Z M 75.3125 51.109375 " fill-opacity="1" fill-rule="nonzero"/></g><g clip-path="url(#e483ac8f52)"><path fill="#4a90e2" d="M 51.765625 45.035156 C 52.226562 46.179688 52.691406 47.324219 53.15625 48.472656 C 53.367188 47.285156 53.578125 46.097656 53.789062 44.914062 C 53.863281 44.503906 54.394531 44.605469 54.515625 44.914062 C 54.757812 45.519531 55 46.125 55.242188 46.734375 C 55.625 44.503906 56.007812 42.273438 56.390625 40.046875 C 56.464844 39.601562 57.101562 39.746094 57.132812 40.148438 C 57.132812 40.164062 57.132812 40.183594 57.136719 40.203125 C 57.34375 43.183594 57.550781 46.164062 57.757812 49.144531 C 57.953125 47.457031 58.144531 45.769531 58.339844 44.082031 C 58.378906 43.746094 58.855469 43.519531 59.042969 43.894531 C 59.261719 44.332031 59.484375 44.773438 59.703125 45.214844 C 62.207031 45.214844 64.707031 45.214844 67.207031 45.214844 C 67.351562 45.003906 67.480469 44.800781 67.585938 44.605469 C 68.191406 43.503906 68.699219 42.304688 68.699219 41.019531 C 68.699219 37.304688 65.691406 34.292969 61.984375 34.292969 C 59.378906 34.292969 57.121094 35.765625 56 37.941406 C 54.886719 35.765625 52.625 34.292969 50.027344 34.292969 C 46.3125 34.292969 43.304688 37.304688 43.304688 41.019531 C 43.304688 42.304688 43.8125 43.503906 44.421875 44.605469 C 44.429688 44.621094 44.4375 44.636719 44.449219 44.652344 C 46.765625 44.6875 49.082031 44.722656 51.398438 44.757812 C 51.582031 44.757812 51.699219 44.875 51.765625 45.035156 " fill-opacity="1" fill-rule="nonzero"/></g><g clip-path="url(#e81dcb08d9)"><path fill="#4a90e2" d="M 59.144531 45.785156 C 59.078125 45.648438 59.011719 45.515625 58.945312 45.382812 C 58.644531 48 58.34375 50.621094 58.042969 53.238281 C 57.988281 53.714844 57.324219 53.730469 57.289062 53.238281 C 57.289062 53.21875 57.285156 53.199219 57.285156 53.183594 C 57.054688 49.882812 56.824219 46.585938 56.59375 43.289062 C 56.3125 44.929688 56.03125 46.570312 55.75 48.210938 C 55.679688 48.621094 55.144531 48.515625 55.023438 48.210938 C 54.78125 47.597656 54.535156 46.988281 54.292969 46.375 C 54.082031 47.558594 53.871094 48.738281 53.660156 49.921875 C 53.589844 50.332031 53.058594 50.226562 52.933594 49.921875 C 52.339844 48.449219 51.742188 46.976562 51.148438 45.507812 C 49.074219 45.476562 47.003906 45.445312 44.933594 45.414062 C 47.6875 49.3125 55.875 56.035156 55.984375 55.992188 C 55.984375 55.992188 55.988281 55.988281 56 55.988281 C 56.015625 55.988281 56.023438 55.992188 56.023438 55.992188 C 56.125 56.03125 63.578125 49.914062 66.65625 45.96875 C 64.261719 45.96875 61.867188 45.96875 59.472656 45.96875 C 59.34375 45.96875 59.203125 45.898438 59.144531 45.785156 " fill-opacity="1" fill-rule="nonzero"/></g></svg>