<svg xmlns="http://www.w3.org/2000/svg" xmlns:xlink="http://www.w3.org/1999/xlink" width="436" zoomAndPan="magnify" viewBox="0 0 327 112.499997" height="150" preserveAspectRatio="xMidYMid meet" version="1.0"><defs><g/><clipPath id="fbb2162571"><path d="M 0.722656 0 L 112.726562 0 L 112.726562 112.003906 L 0.722656 112.003906 Z M 0.722656 0 " clip-rule="nonzero"/></clipPath><clipPath id="adaba3c5a4"><path d="M 17.898438 0 L 95.550781 0 C 100.105469 0 104.476562 1.808594 107.695312 5.03125 C 110.917969 8.25 112.726562 12.617188 112.726562 17.171875 L 112.726562 94.828125 C 112.726562 99.382812 110.917969 103.75 107.695312 106.972656 C 104.476562 110.191406 100.105469 112.003906 95.550781 112.003906 L 17.898438 112.003906 C 13.34375 112.003906 8.972656 110.191406 5.753906 106.972656 C 2.53125 103.75 0.722656 99.382812 0.722656 94.828125 L 0.722656 17.171875 C 0.722656 12.617188 2.53125 8.25 5.753906 5.03125 C 8.972656 1.808594 13.34375 0 17.898438 0 Z M 17.898438 0 " clip-rule="nonzero"/></clipPath><clipPath id="d2f72b1381"><path d="M 3.527344 2.804688 L 109.558594 2.804688 L 109.558594 108.832031 L 3.527344 108.832031 Z M 3.527344 2.804688 " clip-rule="nonzero"/></clipPath><clipPath id="27a05aa4e5"><path d="M 25.316406 31 L 42 31 L 42 81.765625 L 25.316406 81.765625 Z M 25.316406 31 " clip-rule="nonzero"/></clipPath><clipPath id="5ad1f4d32d"><path d="M 71 31 L 88 31 L 88 81.765625 L 71 81.765625 Z M 71 31 " clip-rule="nonzero"/></clipPath><clipPath id="45df59d595"><path d="M 31 50 L 54 50 L 54 81.765625 L 31 81.765625 Z M 31 50 " clip-rule="nonzero"/></clipPath><clipPath id="f3dd6aa61a"><path d="M 59 50 L 82 50 L 82 81.765625 L 59 81.765625 Z M 59 50 " clip-rule="nonzero"/></clipPath><clipPath id="323faa68d6"><path d="M 44.027344 34.292969 L 69.382812 34.292969 L 69.382812 49.1875 L 44.027344 49.1875 Z M 44.027344 34.292969 " clip-rule="nonzero"/></clipPath><clipPath id="5e3ed1c554"><path d="M 45.648438 43.265625 L 67.417969 43.265625 L 67.417969 55.945312 L 45.648438 55.945312 Z M 45.648438 43.265625 " clip-rule="nonzero"/></clipPath></defs><g clip-path="url(#fbb2162571)"><g clip-path="url(#adaba3c5a4)"><path fill="#4a90e2" d="M 0.722656 0 L 112.726562 0 L 112.726562 112.003906 L 0.722656 112.003906 Z M 0.722656 0 " fill-opacity="1" fill-rule="nonzero"/></g></g><g clip-path="url(#d2f72b1381)"><path fill="#cafdff" d="M 109.917969 56 C 109.917969 57.742188 109.832031 59.480469 109.664062 61.214844 C 109.492188 62.949219 109.238281 64.667969 108.898438 66.378906 C 108.558594 68.085938 108.132812 69.773438 107.628906 71.441406 C 107.121094 73.109375 106.535156 74.746094 105.871094 76.355469 C 105.203125 77.964844 104.457031 79.539062 103.636719 81.078125 C 102.816406 82.613281 101.921875 84.105469 100.953125 85.554688 C 99.984375 87.003906 98.949219 88.398438 97.84375 89.746094 C 96.738281 91.09375 95.570312 92.382812 94.339844 93.613281 C 93.105469 94.847656 91.816406 96.015625 90.46875 97.121094 C 89.125 98.226562 87.726562 99.261719 86.277344 100.230469 C 84.828125 101.199219 83.335938 102.09375 81.800781 102.914062 C 80.261719 103.734375 78.691406 104.480469 77.082031 105.144531 C 75.472656 105.8125 73.832031 106.398438 72.164062 106.90625 C 70.5 107.410156 68.808594 107.832031 67.101562 108.171875 C 65.394531 108.511719 63.671875 108.769531 61.9375 108.9375 C 60.203125 109.109375 58.464844 109.195312 56.722656 109.195312 C 54.980469 109.195312 53.242188 109.109375 51.507812 108.9375 C 49.777344 108.769531 48.054688 108.511719 46.347656 108.171875 C 44.636719 107.832031 42.949219 107.410156 41.28125 106.90625 C 39.613281 106.398438 37.976562 105.8125 36.367188 105.144531 C 34.757812 104.480469 33.183594 103.734375 31.648438 102.914062 C 30.109375 102.09375 28.617188 101.199219 27.171875 100.230469 C 25.722656 99.261719 24.324219 98.226562 22.976562 97.121094 C 21.628906 96.015625 20.339844 94.847656 19.109375 93.613281 C 17.878906 92.382812 16.707031 91.09375 15.601562 89.746094 C 14.496094 88.398438 13.460938 87.003906 12.492188 85.554688 C 11.527344 84.105469 10.632812 82.613281 9.808594 81.078125 C 8.988281 79.539062 8.246094 77.964844 7.578125 76.355469 C 6.910156 74.746094 6.324219 73.109375 5.820312 71.441406 C 5.3125 69.773438 4.890625 68.085938 4.550781 66.378906 C 4.210938 64.667969 3.957031 62.949219 3.785156 61.214844 C 3.613281 59.480469 3.527344 57.742188 3.527344 56 C 3.527344 54.257812 3.613281 52.519531 3.785156 50.785156 C 3.957031 49.050781 4.210938 47.332031 4.550781 45.621094 C 4.890625 43.914062 5.3125 42.226562 5.820312 40.558594 C 6.324219 38.890625 6.910156 37.253906 7.578125 35.644531 C 8.246094 34.035156 8.988281 32.460938 9.808594 30.925781 C 10.632812 29.386719 11.527344 27.894531 12.492188 26.445312 C 13.460938 24.996094 14.496094 23.601562 15.601562 22.253906 C 16.707031 20.90625 17.878906 19.617188 19.109375 18.386719 C 20.339844 17.152344 21.628906 15.984375 22.976562 14.878906 C 24.324219 13.773438 25.722656 12.738281 27.171875 11.769531 C 28.617188 10.800781 30.109375 9.90625 31.648438 9.085938 C 33.183594 8.265625 34.757812 7.519531 36.367188 6.855469 C 37.976562 6.1875 39.613281 5.601562 41.28125 5.09375 C 42.949219 4.589844 44.636719 4.167969 46.347656 3.828125 C 48.054688 3.488281 49.777344 3.230469 51.507812 3.0625 C 53.242188 2.890625 54.980469 2.804688 56.722656 2.804688 C 58.464844 2.804688 60.203125 2.890625 61.9375 3.0625 C 63.671875 3.230469 65.394531 3.488281 67.101562 3.828125 C 68.808594 4.167969 70.5 4.589844 72.164062 5.09375 C 73.832031 5.601562 75.472656 6.1875 77.082031 6.855469 C 78.691406 7.519531 80.261719 8.265625 81.800781 9.085938 C 83.335938 9.90625 84.828125 10.800781 86.277344 11.769531 C 87.726562 12.738281 89.125 13.773438 90.46875 14.878906 C 91.816406 15.984375 93.105469 17.152344 94.339844 18.386719 C 95.570312 19.617188 96.738281 20.90625 97.84375 22.253906 C 98.949219 23.601562 99.984375 24.996094 100.953125 26.445312 C 101.921875 27.894531 102.816406 29.386719 103.636719 30.925781 C 104.457031 32.460938 105.203125 34.035156 105.871094 35.644531 C 106.535156 37.253906 107.121094 38.890625 107.628906 40.558594 C 108.132812 42.226562 108.558594 43.914062 108.898438 45.621094 C 109.238281 47.332031 109.492188 49.050781 109.664062 50.785156 C 109.832031 52.519531 109.917969 54.257812 109.917969 56 Z M 109.917969 56 " fill-opacity="1" fill-rule="nonzero"/></g><g clip-path="url(#27a05aa4e5)"><path fill="#4a90e2" d="M 27.023438 34.261719 C 27.121094 31.980469 29.851562 30.277344 31.910156 31.394531 C 33.304688 32 33.785156 33.546875 33.898438 34.941406 C 36.289062 34.8125 38.335938 36.882812 37.890625 39.308594 C 39.621094 39.4375 41.445312 40.566406 41.535156 42.460938 C 41.578125 45.050781 41.203125 47.636719 40.796875 50.191406 C 40.890625 51.375 38.769531 51.476562 38.773438 50.273438 C 38.949219 47.667969 39.601562 45.082031 39.457031 42.457031 C 39.292969 41.613281 38.375 41.546875 37.695312 41.433594 C 37.378906 43.882812 37.421875 46.375 37.042969 48.8125 C 36.964844 49.796875 35.203125 49.761719 35.097656 48.753906 C 35.175781 45.277344 35.664062 41.824219 35.769531 38.351562 C 35.960938 37.265625 34.550781 37.167969 33.820312 37.023438 C 33.746094 41.074219 33.925781 45.132812 33.78125 49.175781 C 33.769531 50.234375 31.886719 50.304688 31.828125 49.222656 C 31.640625 44.390625 31.804688 39.546875 31.707031 34.707031 C 31.789062 34.015625 31.308594 33.46875 30.765625 33.128906 C 29.769531 32.925781 29.039062 33.859375 29.0625 34.777344 C 28.597656 40.789062 28.085938 46.800781 27.6875 52.816406 C 27.617188 58.0625 28.558594 63.832031 32.425781 67.699219 C 35.914062 71.367188 40.144531 74.910156 41.09375 80.171875 C 41.324219 81.097656 39.933594 81.664062 39.363281 80.960938 C 38.472656 79.089844 38.046875 76.960938 36.683594 75.332031 C 33.894531 71.792969 29.980469 69.136719 27.949219 65.015625 C 25.882812 60.589844 25.3125 55.570312 25.738281 50.738281 C 26.183594 45.25 26.582031 39.753906 27.023438 34.261719 Z M 27.023438 34.261719 " fill-opacity="1" fill-rule="nonzero"/></g><g clip-path="url(#5ad1f4d32d)"><path fill="#4a90e2" d="M 81.152344 31.476562 C 83.101562 30.269531 85.882812 31.730469 86.160156 33.953125 C 86.488281 36.960938 86.621094 39.984375 86.890625 43 C 87.164062 48.105469 88.125 53.253906 87.273438 58.363281 C 86.753906 61.488281 85.839844 64.648438 83.933594 67.226562 C 81.730469 70.304688 78.625 72.582031 76.347656 75.597656 C 75.128906 77.183594 74.726562 79.183594 73.890625 80.957031 C 73.316406 81.671875 71.945312 81.125 72.125 80.203125 C 72.464844 78.605469 73.125 77.089844 73.863281 75.644531 C 76.390625 71.277344 81.019531 68.566406 83.410156 64.109375 C 85.339844 59.972656 85.824219 55.277344 85.421875 50.769531 C 84.96875 45.324219 84.609375 39.871094 84.121094 34.4375 C 84.113281 33.484375 83.105469 33.238281 82.414062 32.917969 C 82.125 33.503906 81.472656 33.988281 81.53125 34.703125 C 81.46875 39.191406 81.515625 43.683594 81.476562 48.175781 C 81.492188 48.949219 81.460938 50.113281 80.367188 50.03125 C 79.363281 49.988281 79.378906 48.910156 79.394531 48.179688 C 79.390625 44.464844 79.445312 40.75 79.410156 37.035156 C 78.664062 37.152344 77.269531 37.273438 77.460938 38.375 C 77.578125 41.652344 77.984375 44.917969 78.136719 48.199219 C 78.457031 49.28125 77.074219 49.957031 76.300781 49.234375 C 75.703125 46.683594 75.925781 44.019531 75.53125 41.433594 C 74.84375 41.535156 73.917969 41.636719 73.773438 42.484375 C 73.636719 45.097656 74.292969 47.671875 74.46875 50.269531 C 74.5 51.308594 72.707031 51.457031 72.507812 50.5 C 72.027344 47.84375 71.664062 45.128906 71.703125 42.425781 C 71.804688 40.554688 73.613281 39.421875 75.339844 39.308594 C 74.890625 36.878906 76.945312 34.8125 79.332031 34.929688 C 79.457031 33.601562 79.867188 32.132812 81.152344 31.476562 Z M 81.152344 31.476562 " fill-opacity="1" fill-rule="nonzero"/></g><g clip-path="url(#45df59d595)"><path fill="#4a90e2" d="M 33.066406 51.09375 C 34.503906 50.292969 36.484375 50.292969 37.703125 51.503906 C 40.019531 53.855469 41.9375 56.582031 44.285156 58.90625 C 46.761719 61.238281 50.21875 63.046875 51.019531 66.640625 C 51.898438 70.964844 52.488281 75.355469 53.414062 79.675781 C 53.734375 80.394531 53.320312 81.285156 52.476562 81.277344 C 51.644531 81.289062 51.476562 80.429688 51.339844 79.796875 C 50.421875 75.671875 49.886719 71.460938 49.050781 67.324219 C 48.570312 64.808594 46.316406 63.359375 44.5 61.820312 C 41.28125 59.351562 39.105469 55.839844 36.261719 52.992188 C 35.371094 52.066406 33.074219 52.828125 33.65625 54.304688 C 35.425781 58.0625 37.910156 61.460938 39.777344 65.171875 C 40.101562 66.285156 38.335938 66.882812 37.882812 65.84375 C 35.925781 62.644531 34.0625 59.375 32.171875 56.136719 C 31.164062 54.546875 31.292969 52.082031 33.066406 51.09375 Z M 33.066406 51.09375 " fill-opacity="1" fill-rule="nonzero"/></g><g clip-path="url(#f3dd6aa61a)"><path fill="#4a90e2" d="M 76.035156 51.109375 C 77.84375 49.890625 80.835938 50.640625 81.554688 52.800781 C 82.042969 54.308594 81.3125 55.820312 80.53125 57.082031 C 78.765625 59.988281 77.136719 62.980469 75.332031 65.859375 C 74.875 66.871094 73.171875 66.289062 73.441406 65.199219 C 75.304688 61.496094 77.761719 58.105469 79.554688 54.367188 C 80.210938 52.894531 77.9375 52.0625 77.007812 52.960938 C 74.140625 55.800781 71.972656 59.320312 68.761719 61.808594 C 67.015625 63.296875 64.835938 64.664062 64.253906 67.042969 C 63.273438 71.554688 62.820312 76.179688 61.652344 80.648438 C 61.375 81.730469 59.425781 81.242188 59.757812 80.171875 C 60.636719 75.664062 61.324219 71.117188 62.222656 66.609375 C 62.859375 63.714844 65.355469 61.914062 67.511719 60.148438 C 70.820312 57.59375 72.90625 53.828125 76.035156 51.109375 Z M 76.035156 51.109375 " fill-opacity="1" fill-rule="nonzero"/></g><g clip-path="url(#323faa68d6)"><path fill="#4a90e2" d="M 52.488281 45.035156 C 52.953125 46.179688 53.414062 47.324219 53.878906 48.472656 C 54.089844 47.285156 54.300781 46.097656 54.511719 44.914062 C 54.585938 44.503906 55.117188 44.605469 55.242188 44.914062 C 55.480469 45.519531 55.722656 46.125 55.964844 46.734375 C 56.347656 44.503906 56.730469 42.273438 57.113281 40.046875 C 57.1875 39.601562 57.828125 39.746094 57.855469 40.148438 C 57.855469 40.164062 57.855469 40.183594 57.859375 40.203125 C 58.066406 43.183594 58.273438 46.164062 58.480469 49.144531 C 58.675781 47.457031 58.867188 45.769531 59.0625 44.082031 C 59.101562 43.746094 59.578125 43.519531 59.765625 43.894531 C 59.984375 44.332031 60.207031 44.773438 60.425781 45.214844 C 62.929688 45.214844 65.429688 45.214844 67.933594 45.214844 C 68.074219 45.003906 68.203125 44.800781 68.308594 44.605469 C 68.914062 43.503906 69.421875 42.304688 69.421875 41.019531 C 69.421875 37.304688 66.414062 34.292969 62.707031 34.292969 C 60.101562 34.292969 57.84375 35.765625 56.722656 37.941406 C 55.609375 35.765625 53.351562 34.292969 50.75 34.292969 C 47.035156 34.292969 44.027344 37.304688 44.027344 41.019531 C 44.027344 42.304688 44.535156 43.503906 45.144531 44.605469 C 45.152344 44.621094 45.164062 44.636719 45.171875 44.652344 C 47.488281 44.6875 49.804688 44.722656 52.125 44.757812 C 52.308594 44.757812 52.421875 44.875 52.488281 45.035156 " fill-opacity="1" fill-rule="nonzero"/></g><g clip-path="url(#5e3ed1c554)"><path fill="#4a90e2" d="M 59.867188 45.785156 C 59.800781 45.648438 59.734375 45.515625 59.667969 45.382812 C 59.367188 48 59.066406 50.621094 58.769531 53.238281 C 58.714844 53.714844 58.046875 53.730469 58.011719 53.238281 C 58.011719 53.21875 58.011719 53.199219 58.007812 53.183594 C 57.777344 49.882812 57.550781 46.585938 57.320312 43.289062 C 57.039062 44.929688 56.757812 46.570312 56.476562 48.210938 C 56.40625 48.621094 55.867188 48.515625 55.746094 48.210938 C 55.503906 47.597656 55.257812 46.988281 55.015625 46.375 C 54.804688 47.558594 54.597656 48.738281 54.386719 49.921875 C 54.3125 50.332031 53.78125 50.226562 53.65625 49.921875 C 53.0625 48.449219 52.464844 46.976562 51.871094 45.507812 C 49.800781 45.476562 47.730469 45.445312 45.65625 45.414062 C 48.410156 49.3125 56.597656 56.035156 56.710938 55.992188 C 56.710938 55.992188 56.710938 55.988281 56.722656 55.988281 C 56.738281 55.988281 56.746094 55.992188 56.746094 55.992188 C 56.851562 56.03125 64.300781 49.914062 67.378906 45.96875 C 64.984375 45.96875 62.589844 45.96875 60.195312 45.96875 C 60.066406 45.96875 59.925781 45.898438 59.867188 45.785156 " fill-opacity="1" fill-rule="nonzero"/></g><g fill="#4a90e2" fill-opacity="1"><g transform="translate(121.794267, 57.231174)"><g><path d="M 16.84375 -1.984375 L 5.9375 -24.328125 L 5.9375 0 L 3.0625 0 L 3.0625 -27.875 L 7.375 -27.875 L 16.890625 -8.078125 L 26.359375 -27.875 L 30.671875 -27.875 L 30.671875 0 L 27.765625 0 L 27.765625 -24.375 Z M 16.84375 -1.984375 "/></g></g></g><g fill="#4a90e2" fill-opacity="1"><g transform="translate(159.463485, 57.231174)"><g><path d="M 19.3125 -2.109375 C 18.195312 -1.285156 17.035156 -0.664062 15.828125 -0.25 C 14.617188 0.15625 13.300781 0.359375 11.875 0.359375 C 10.4375 0.359375 9.085938 0.09375 7.828125 -0.4375 C 6.566406 -0.96875 5.476562 -1.695312 4.5625 -2.625 C 3.644531 -3.550781 2.921875 -4.644531 2.390625 -5.90625 C 1.859375 -7.175781 1.59375 -8.539062 1.59375 -10 C 1.59375 -11.425781 1.847656 -12.765625 2.359375 -14.015625 C 2.878906 -15.265625 3.578125 -16.351562 4.453125 -17.28125 C 5.335938 -18.207031 6.382812 -18.9375 7.59375 -19.46875 C 8.800781 -20 10.082031 -20.265625 11.4375 -20.265625 C 12.757812 -20.265625 14 -20 15.15625 -19.46875 C 16.3125 -18.9375 17.304688 -18.207031 18.140625 -17.28125 C 18.972656 -16.351562 19.632812 -15.265625 20.125 -14.015625 C 20.625 -12.765625 20.875 -11.425781 20.875 -10 L 20.875 -9.078125 L 4.5 -9.078125 C 4.707031 -7.117188 5.515625 -5.488281 6.921875 -4.1875 C 8.335938 -2.882812 10.023438 -2.234375 11.984375 -2.234375 C 13.023438 -2.234375 14.035156 -2.390625 15.015625 -2.703125 C 15.992188 -3.023438 16.816406 -3.476562 17.484375 -4.0625 Z M 11.34375 -17.6875 C 9.625 -17.6875 8.132812 -17.097656 6.875 -15.921875 C 5.613281 -14.753906 4.847656 -13.257812 4.578125 -11.4375 L 17.921875 -11.4375 C 17.660156 -13.1875 16.910156 -14.664062 15.671875 -15.875 C 14.441406 -17.082031 13 -17.6875 11.34375 -17.6875 Z M 11.34375 -17.6875 "/></g></g></g><g fill="#4a90e2" fill-opacity="1"><g transform="translate(185.863906, 57.231174)"><g><path d="M 18.078125 0 L 18.078125 -2.109375 C 17.234375 -1.316406 16.257812 -0.710938 15.15625 -0.296875 C 14.050781 0.109375 12.875 0.3125 11.625 0.3125 C 10.21875 0.3125 8.90625 0.046875 7.6875 -0.484375 C 6.46875 -1.015625 5.40625 -1.734375 4.5 -2.640625 C 3.59375 -3.554688 2.878906 -4.648438 2.359375 -5.921875 C 1.847656 -7.203125 1.59375 -8.5625 1.59375 -10 C 1.59375 -11.425781 1.847656 -12.769531 2.359375 -14.03125 C 2.878906 -15.300781 3.59375 -16.390625 4.5 -17.296875 C 5.40625 -18.210938 6.472656 -18.9375 7.703125 -19.46875 C 8.941406 -20 10.265625 -20.265625 11.671875 -20.265625 C 12.804688 -20.265625 13.925781 -20.070312 15.03125 -19.6875 C 16.132812 -19.3125 17.140625 -18.75 18.046875 -18 L 18.046875 -27.875 L 20.984375 -28.5625 L 20.984375 0 Z M 4.5 -10.03125 C 4.5 -8.945312 4.691406 -7.925781 5.078125 -6.96875 C 5.460938 -6.007812 5.984375 -5.1875 6.640625 -4.5 C 7.304688 -3.8125 8.09375 -3.265625 9 -2.859375 C 9.90625 -2.460938 10.875 -2.265625 11.90625 -2.265625 C 13.15625 -2.265625 14.316406 -2.507812 15.390625 -3 C 16.460938 -3.5 17.347656 -4.1875 18.046875 -5.0625 L 18.046875 -14.9375 C 17.347656 -15.78125 16.453125 -16.445312 15.359375 -16.9375 C 14.273438 -17.4375 13.125 -17.6875 11.90625 -17.6875 C 9.832031 -17.6875 8.078125 -16.953125 6.640625 -15.484375 C 5.210938 -14.023438 4.5 -12.207031 4.5 -10.03125 Z M 4.5 -10.03125 "/></g></g></g><g fill="#4a90e2" fill-opacity="1"><g transform="translate(213.299627, 57.231174)"><g><path d="M 3.984375 -23.78125 C 3.453125 -23.78125 2.984375 -23.976562 2.578125 -24.375 C 2.179688 -24.769531 1.984375 -25.234375 1.984375 -25.765625 C 1.984375 -26.328125 2.179688 -26.800781 2.578125 -27.1875 C 2.984375 -27.570312 3.453125 -27.765625 3.984375 -27.765625 C 4.535156 -27.765625 5.003906 -27.570312 5.390625 -27.1875 C 5.773438 -26.800781 5.96875 -26.328125 5.96875 -25.765625 C 5.96875 -25.234375 5.773438 -24.769531 5.390625 -24.375 C 5.003906 -23.976562 4.535156 -23.78125 3.984375 -23.78125 Z M 5.453125 -19.953125 L 5.453125 0 L 2.515625 0 L 2.515625 -19.953125 Z M 5.453125 -19.953125 "/></g></g></g><g fill="#4a90e2" fill-opacity="1"><g transform="translate(225.205911, 57.231174)"><g><path d="M 11.828125 -2.3125 C 12.890625 -2.3125 13.910156 -2.519531 14.890625 -2.9375 C 15.878906 -3.363281 16.796875 -3.988281 17.640625 -4.8125 L 19.46875 -2.828125 C 18.40625 -1.816406 17.210938 -1.03125 15.890625 -0.46875 C 14.566406 0.0820312 13.1875 0.359375 11.75 0.359375 C 10.34375 0.359375 9.015625 0.09375 7.765625 -0.4375 C 6.515625 -0.96875 5.4375 -1.695312 4.53125 -2.625 C 3.632812 -3.550781 2.921875 -4.648438 2.390625 -5.921875 C 1.859375 -7.203125 1.59375 -8.5625 1.59375 -10 C 1.59375 -11.425781 1.859375 -12.769531 2.390625 -14.03125 C 2.921875 -15.300781 3.632812 -16.398438 4.53125 -17.328125 C 5.4375 -18.253906 6.515625 -18.988281 7.765625 -19.53125 C 9.015625 -20.082031 10.34375 -20.359375 11.75 -20.359375 C 13.1875 -20.359375 14.585938 -20.078125 15.953125 -19.515625 C 17.316406 -18.953125 18.519531 -18.179688 19.5625 -17.203125 L 17.6875 -15.0625 C 16.882812 -15.882812 15.960938 -16.519531 14.921875 -16.96875 C 13.890625 -17.414062 12.847656 -17.640625 11.796875 -17.640625 C 10.785156 -17.640625 9.828125 -17.441406 8.921875 -17.046875 C 8.015625 -16.648438 7.234375 -16.101562 6.578125 -15.40625 C 5.929688 -14.71875 5.421875 -13.910156 5.046875 -12.984375 C 4.679688 -12.054688 4.5 -11.0625 4.5 -10 C 4.5 -8.90625 4.691406 -7.882812 5.078125 -6.9375 C 5.460938 -6 5.976562 -5.191406 6.625 -4.515625 C 7.28125 -3.835938 8.054688 -3.300781 8.953125 -2.90625 C 9.859375 -2.507812 10.816406 -2.3125 11.828125 -2.3125 Z M 11.828125 -2.3125 "/></g></g></g><g fill="#4a90e2" fill-opacity="1"><g transform="translate(249.575562, 57.231174)"><g><path d="M 8.796875 0.359375 C 6.617188 0.359375 4.847656 -0.195312 3.484375 -1.3125 C 2.117188 -2.425781 1.4375 -3.875 1.4375 -5.65625 C 1.4375 -7.507812 2.148438 -8.988281 3.578125 -10.09375 C 5.015625 -11.195312 6.957031 -11.75 9.40625 -11.75 C 10.46875 -11.75 11.492188 -11.628906 12.484375 -11.390625 C 13.484375 -11.148438 14.40625 -10.816406 15.25 -10.390625 L 15.25 -13.03125 C 15.25 -14.613281 14.796875 -15.8125 13.890625 -16.625 C 12.992188 -17.4375 11.679688 -17.84375 9.953125 -17.84375 C 8.972656 -17.84375 7.984375 -17.703125 6.984375 -17.421875 C 5.992188 -17.140625 4.898438 -16.695312 3.703125 -16.09375 L 2.59375 -18.359375 C 4.019531 -19.046875 5.34375 -19.550781 6.5625 -19.875 C 7.789062 -20.195312 9.015625 -20.359375 10.234375 -20.359375 C 12.753906 -20.359375 14.695312 -19.757812 16.0625 -18.5625 C 17.4375 -17.363281 18.125 -15.648438 18.125 -13.421875 L 18.125 0 L 15.25 0 L 15.25 -1.953125 C 14.351562 -1.179688 13.363281 -0.601562 12.28125 -0.21875 C 11.207031 0.164062 10.046875 0.359375 8.796875 0.359375 Z M 4.265625 -5.734375 C 4.265625 -4.617188 4.734375 -3.707031 5.671875 -3 C 6.617188 -2.300781 7.832031 -1.953125 9.3125 -1.953125 C 10.507812 -1.953125 11.597656 -2.132812 12.578125 -2.5 C 13.566406 -2.875 14.457031 -3.460938 15.25 -4.265625 L 15.25 -8 C 14.425781 -8.5625 13.539062 -8.96875 12.59375 -9.21875 C 11.65625 -9.46875 10.617188 -9.59375 9.484375 -9.59375 C 7.890625 -9.59375 6.617188 -9.238281 5.671875 -8.53125 C 4.734375 -7.832031 4.265625 -6.898438 4.265625 -5.734375 Z M 4.265625 -5.734375 "/></g></g></g><g fill="#4a90e2" fill-opacity="1"><g transform="translate(274.064674, 57.231174)"><g><path d="M 2.515625 0 L 2.515625 -19.953125 L 5.453125 -19.953125 L 5.453125 -17.125 C 6.035156 -18.15625 6.804688 -18.957031 7.765625 -19.53125 C 8.722656 -20.101562 9.8125 -20.390625 11.03125 -20.390625 C 11.40625 -20.390625 11.738281 -20.367188 12.03125 -20.328125 C 12.320312 -20.285156 12.613281 -20.210938 12.90625 -20.109375 L 12.90625 -17.40625 C 12.5625 -17.507812 12.210938 -17.59375 11.859375 -17.65625 C 11.515625 -17.726562 11.171875 -17.765625 10.828125 -17.765625 C 9.609375 -17.765625 8.535156 -17.410156 7.609375 -16.703125 C 6.679688 -16.003906 5.960938 -14.988281 5.453125 -13.65625 L 5.453125 0 Z M 2.515625 0 "/></g></g></g><g fill="#4a90e2" fill-opacity="1"><g transform="translate(291.784547, 57.231174)"><g><path d="M 19.3125 -2.109375 C 18.195312 -1.285156 17.035156 -0.664062 15.828125 -0.25 C 14.617188 0.15625 13.300781 0.359375 11.875 0.359375 C 10.4375 0.359375 9.085938 0.09375 7.828125 -0.4375 C 6.566406 -0.96875 5.476562 -1.695312 4.5625 -2.625 C 3.644531 -3.550781 2.921875 -4.644531 2.390625 -5.90625 C 1.859375 -7.175781 1.59375 -8.539062 1.59375 -10 C 1.59375 -11.425781 1.847656 -12.765625 2.359375 -14.015625 C 2.878906 -15.265625 3.578125 -16.351562 4.453125 -17.28125 C 5.335938 -18.207031 6.382812 -18.9375 7.59375 -19.46875 C 8.800781 -20 10.082031 -20.265625 11.4375 -20.265625 C 12.757812 -20.265625 14 -20 15.15625 -19.46875 C 16.3125 -18.9375 17.304688 -18.207031 18.140625 -17.28125 C 18.972656 -16.351562 19.632812 -15.265625 20.125 -14.015625 C 20.625 -12.765625 20.875 -11.425781 20.875 -10 L 20.875 -9.078125 L 4.5 -9.078125 C 4.707031 -7.117188 5.515625 -5.488281 6.921875 -4.1875 C 8.335938 -2.882812 10.023438 -2.234375 11.984375 -2.234375 C 13.023438 -2.234375 14.035156 -2.390625 15.015625 -2.703125 C 15.992188 -3.023438 16.816406 -3.476562 17.484375 -4.0625 Z M 11.34375 -17.6875 C 9.625 -17.6875 8.132812 -17.097656 6.875 -15.921875 C 5.613281 -14.753906 4.847656 -13.257812 4.578125 -11.4375 L 17.921875 -11.4375 C 17.660156 -13.1875 16.910156 -14.664062 15.671875 -15.875 C 14.441406 -17.082031 13 -17.6875 11.34375 -17.6875 Z M 11.34375 -17.6875 "/></g></g></g><g fill="#4a90e2" fill-opacity="1"><g transform="translate(120.607297, 88.224319)"><g><path d="M 6.234375 0.15625 C 5.253906 0.15625 4.378906 -0.0507812 3.609375 -0.46875 C 2.835938 -0.894531 2.234375 -1.546875 1.796875 -2.421875 C 1.359375 -3.296875 1.140625 -4.382812 1.140625 -5.6875 C 1.140625 -6.988281 1.359375 -8.070312 1.796875 -8.9375 C 2.234375 -9.8125 2.835938 -10.460938 3.609375 -10.890625 C 4.378906 -11.316406 5.253906 -11.53125 6.234375 -11.53125 C 7.222656 -11.53125 8.097656 -11.316406 8.859375 -10.890625 C 9.628906 -10.460938 10.234375 -9.8125 10.671875 -8.9375 C 11.109375 -8.070312 11.328125 -6.988281 11.328125 -5.6875 C 11.328125 -4.382812 11.109375 -3.296875 10.671875 -2.421875 C 10.234375 -1.546875 9.628906 -0.894531 8.859375 -0.46875 C 8.097656 -0.0507812 7.222656 0.15625 6.234375 0.15625 Z M 6.234375 -1.078125 C 7.410156 -1.078125 8.316406 -1.441406 8.953125 -2.171875 C 9.585938 -2.910156 9.90625 -4.082031 9.90625 -5.6875 C 9.90625 -7.28125 9.585938 -8.445312 8.953125 -9.1875 C 8.316406 -9.925781 7.410156 -10.296875 6.234375 -10.296875 C 3.785156 -10.296875 2.5625 -8.757812 2.5625 -5.6875 C 2.5625 -2.613281 3.785156 -1.078125 6.234375 -1.078125 Z M 6.234375 -1.078125 "/></g></g></g><g fill="#4a90e2" fill-opacity="1"><g transform="translate(133.080052, 88.224319)"><g><path d="M 1.5 0 L 1.5 -8.578125 L 2.703125 -8.578125 L 2.703125 -7.234375 L 2.859375 -7.1875 C 3.140625 -7.695312 3.503906 -8.082031 3.953125 -8.34375 C 4.398438 -8.601562 4.941406 -8.734375 5.578125 -8.734375 C 6.609375 -8.734375 7.351562 -8.46875 7.8125 -7.9375 C 8.28125 -7.414062 8.515625 -6.609375 8.515625 -5.515625 L 8.515625 0 L 7.25 0 L 7.25 -5.484375 C 7.25 -6.003906 7.179688 -6.421875 7.046875 -6.734375 C 6.910156 -7.046875 6.703125 -7.273438 6.421875 -7.421875 C 6.148438 -7.566406 5.789062 -7.640625 5.34375 -7.640625 C 4.570312 -7.640625 3.945312 -7.382812 3.46875 -6.875 C 3 -6.363281 2.765625 -5.539062 2.765625 -4.40625 L 2.765625 0 Z M 1.5 0 "/></g></g></g><g fill="#4a90e2" fill-opacity="1"><g transform="translate(142.955613, 88.224319)"><g><path d="M 8.171875 -4 L 2.28125 -4 C 2.3125 -2.957031 2.554688 -2.191406 3.015625 -1.703125 C 3.484375 -1.210938 4.125 -0.96875 4.9375 -0.96875 C 5.550781 -0.96875 6.039062 -1.078125 6.40625 -1.296875 C 6.78125 -1.515625 7.078125 -1.859375 7.296875 -2.328125 L 7.453125 -2.328125 L 8.28125 -1.828125 C 8.03125 -1.210938 7.628906 -0.726562 7.078125 -0.375 C 6.535156 -0.0195312 5.820312 0.15625 4.9375 0.15625 C 4.101562 0.15625 3.390625 -0.00390625 2.796875 -0.328125 C 2.203125 -0.648438 1.742188 -1.144531 1.421875 -1.8125 C 1.097656 -2.476562 0.9375 -3.300781 0.9375 -4.28125 C 0.9375 -5.257812 1.101562 -6.082031 1.4375 -6.75 C 1.78125 -7.414062 2.242188 -7.910156 2.828125 -8.234375 C 3.421875 -8.566406 4.097656 -8.734375 4.859375 -8.734375 C 5.953125 -8.734375 6.804688 -8.421875 7.421875 -7.796875 C 8.046875 -7.179688 8.359375 -6.265625 8.359375 -5.046875 C 8.359375 -4.578125 8.347656 -4.257812 8.328125 -4.09375 Z M 7.109375 -5.046875 C 7.085938 -5.960938 6.882812 -6.628906 6.5 -7.046875 C 6.125 -7.460938 5.578125 -7.671875 4.859375 -7.671875 C 4.109375 -7.671875 3.519531 -7.457031 3.09375 -7.03125 C 2.664062 -6.613281 2.40625 -5.953125 2.3125 -5.046875 Z M 7.109375 -5.046875 "/></g></g></g><g fill="#4a90e2" fill-opacity="1"><g transform="translate(152.100226, 88.224319)"><g/></g></g><g fill="#4a90e2" fill-opacity="1"><g transform="translate(156.003794, 88.224319)"><g><path d="M 3.90625 0.15625 C 3.375 0.15625 2.875 0.0859375 2.40625 -0.046875 C 1.945312 -0.191406 1.5625 -0.390625 1.25 -0.640625 C 0.9375 -0.890625 0.710938 -1.171875 0.578125 -1.484375 L 1.328125 -2.25 L 1.5 -2.25 C 1.769531 -1.820312 2.101562 -1.5 2.5 -1.28125 C 2.894531 -1.070312 3.363281 -0.96875 3.90625 -0.96875 C 4.539062 -0.96875 5.019531 -1.085938 5.34375 -1.328125 C 5.675781 -1.578125 5.84375 -1.925781 5.84375 -2.375 C 5.84375 -2.707031 5.742188 -2.984375 5.546875 -3.203125 C 5.347656 -3.421875 5.023438 -3.585938 4.578125 -3.703125 L 3.140625 -4.0625 C 2.359375 -4.25 1.789062 -4.539062 1.4375 -4.9375 C 1.082031 -5.34375 0.90625 -5.84375 0.90625 -6.4375 C 0.90625 -6.90625 1.023438 -7.3125 1.265625 -7.65625 C 1.503906 -8 1.847656 -8.265625 2.296875 -8.453125 C 2.742188 -8.640625 3.273438 -8.734375 3.890625 -8.734375 C 4.679688 -8.734375 5.300781 -8.625 5.75 -8.40625 C 6.207031 -8.1875 6.5625 -7.878906 6.8125 -7.484375 L 6.109375 -6.78125 L 5.953125 -6.78125 C 5.671875 -7.101562 5.367188 -7.332031 5.046875 -7.46875 C 4.722656 -7.613281 4.335938 -7.6875 3.890625 -7.6875 C 3.328125 -7.6875 2.894531 -7.582031 2.59375 -7.375 C 2.289062 -7.175781 2.140625 -6.882812 2.140625 -6.5 C 2.140625 -6.15625 2.242188 -5.875 2.453125 -5.65625 C 2.671875 -5.445312 3.046875 -5.273438 3.578125 -5.140625 L 5 -4.796875 C 5.75 -4.628906 6.285156 -4.335938 6.609375 -3.921875 C 6.941406 -3.515625 7.109375 -3.003906 7.109375 -2.390625 C 7.109375 -1.878906 6.988281 -1.429688 6.75 -1.046875 C 6.507812 -0.671875 6.148438 -0.375 5.671875 -0.15625 C 5.191406 0.0507812 4.601562 0.15625 3.90625 0.15625 Z M 3.90625 0.15625 "/></g></g></g><g fill="#4a90e2" fill-opacity="1"><g transform="translate(163.935347, 88.224319)"><g><path d="M 5.796875 -1.359375 L 6.203125 -0.453125 C 6.003906 -0.242188 5.738281 -0.09375 5.40625 0 C 5.070312 0.101562 4.71875 0.15625 4.34375 0.15625 C 2.695312 0.15625 1.875 -0.671875 1.875 -2.328125 L 1.875 -7.546875 L 0.390625 -7.546875 L 0.390625 -8.578125 L 1.875 -8.578125 L 1.875 -10.390625 L 3.15625 -10.609375 L 3.15625 -8.578125 L 5.90625 -8.578125 L 5.90625 -7.546875 L 3.15625 -7.546875 L 3.15625 -2.453125 C 3.15625 -1.460938 3.582031 -0.96875 4.4375 -0.96875 C 4.894531 -0.96875 5.296875 -1.097656 5.640625 -1.359375 Z M 5.796875 -1.359375 "/></g></g></g><g fill="#4a90e2" fill-opacity="1"><g transform="translate(170.467214, 88.224319)"><g><path d="M 4.921875 0.15625 C 4.109375 0.15625 3.398438 -0.0078125 2.796875 -0.34375 C 2.203125 -0.6875 1.742188 -1.191406 1.421875 -1.859375 C 1.097656 -2.523438 0.9375 -3.332031 0.9375 -4.28125 C 0.9375 -5.226562 1.097656 -6.035156 1.421875 -6.703125 C 1.742188 -7.378906 2.203125 -7.882812 2.796875 -8.21875 C 3.398438 -8.5625 4.109375 -8.734375 4.921875 -8.734375 C 5.734375 -8.734375 6.4375 -8.5625 7.03125 -8.21875 C 7.632812 -7.882812 8.097656 -7.378906 8.421875 -6.703125 C 8.742188 -6.035156 8.90625 -5.226562 8.90625 -4.28125 C 8.90625 -3.332031 8.742188 -2.523438 8.421875 -1.859375 C 8.097656 -1.191406 7.632812 -0.6875 7.03125 -0.34375 C 6.4375 -0.0078125 5.734375 0.15625 4.921875 0.15625 Z M 4.921875 -0.96875 C 5.773438 -0.96875 6.425781 -1.238281 6.875 -1.78125 C 7.332031 -2.320312 7.5625 -3.15625 7.5625 -4.28125 C 7.5625 -5.414062 7.332031 -6.253906 6.875 -6.796875 C 6.425781 -7.335938 5.773438 -7.609375 4.921875 -7.609375 C 4.066406 -7.609375 3.410156 -7.335938 2.953125 -6.796875 C 2.492188 -6.253906 2.265625 -5.414062 2.265625 -4.28125 C 2.265625 -3.15625 2.492188 -2.320312 2.953125 -1.78125 C 3.410156 -1.238281 4.066406 -0.96875 4.921875 -0.96875 Z M 4.921875 -0.96875 "/></g></g></g><g fill="#4a90e2" fill-opacity="1"><g transform="translate(180.31167, 88.224319)"><g><path d="M 1.5 3.46875 L 1.5 -8.578125 L 2.765625 -8.578125 L 2.765625 -7.296875 L 2.921875 -7.265625 C 3.554688 -8.242188 4.492188 -8.734375 5.734375 -8.734375 C 6.441406 -8.734375 7.0625 -8.570312 7.59375 -8.25 C 8.132812 -7.925781 8.550781 -7.429688 8.84375 -6.765625 C 9.144531 -6.097656 9.296875 -5.269531 9.296875 -4.28125 C 9.296875 -3.300781 9.140625 -2.476562 8.828125 -1.8125 C 8.515625 -1.15625 8.082031 -0.660156 7.53125 -0.328125 C 6.976562 -0.00390625 6.347656 0.15625 5.640625 0.15625 C 5.054688 0.15625 4.535156 0.0546875 4.078125 -0.140625 C 3.628906 -0.335938 3.242188 -0.671875 2.921875 -1.140625 L 2.765625 -1.109375 L 2.765625 3.46875 Z M 5.359375 -0.96875 C 7.097656 -0.96875 7.96875 -2.070312 7.96875 -4.28125 C 7.96875 -6.5 7.097656 -7.609375 5.359375 -7.609375 C 4.847656 -7.609375 4.394531 -7.488281 4 -7.25 C 3.613281 -7.019531 3.3125 -6.65625 3.09375 -6.15625 C 2.875 -5.664062 2.765625 -5.039062 2.765625 -4.28125 C 2.765625 -3.53125 2.875 -2.90625 3.09375 -2.40625 C 3.3125 -1.914062 3.613281 -1.550781 4 -1.3125 C 4.394531 -1.082031 4.847656 -0.96875 5.359375 -0.96875 Z M 5.359375 -0.96875 "/></g></g></g><g fill="#4a90e2" fill-opacity="1"><g transform="translate(190.544928, 88.224319)"><g/></g></g><g fill="#4a90e2" fill-opacity="1"><g transform="translate(194.448496, 88.224319)"><g><path d="M 4.25 0 L 2.65625 0 L 0.546875 -8.578125 L 1.796875 -8.578125 L 3.421875 -1.484375 L 3.59375 -1.484375 L 5.59375 -8.578125 L 6.921875 -8.578125 L 8.984375 -1.484375 L 9.140625 -1.484375 L 10.734375 -8.578125 L 11.953125 -8.578125 L 9.875 0 L 8.265625 0 L 6.3125 -6.65625 L 6.140625 -6.65625 Z M 4.25 0 "/></g></g></g><g fill="#4a90e2" fill-opacity="1"><g transform="translate(206.952356, 88.224319)"><g><path d="M 8.171875 -4 L 2.28125 -4 C 2.3125 -2.957031 2.554688 -2.191406 3.015625 -1.703125 C 3.484375 -1.210938 4.125 -0.96875 4.9375 -0.96875 C 5.550781 -0.96875 6.039062 -1.078125 6.40625 -1.296875 C 6.78125 -1.515625 7.078125 -1.859375 7.296875 -2.328125 L 7.453125 -2.328125 L 8.28125 -1.828125 C 8.03125 -1.210938 7.628906 -0.726562 7.078125 -0.375 C 6.535156 -0.0195312 5.820312 0.15625 4.9375 0.15625 C 4.101562 0.15625 3.390625 -0.00390625 2.796875 -0.328125 C 2.203125 -0.648438 1.742188 -1.144531 1.421875 -1.8125 C 1.097656 -2.476562 0.9375 -3.300781 0.9375 -4.28125 C 0.9375 -5.257812 1.101562 -6.082031 1.4375 -6.75 C 1.78125 -7.414062 2.242188 -7.910156 2.828125 -8.234375 C 3.421875 -8.566406 4.097656 -8.734375 4.859375 -8.734375 C 5.953125 -8.734375 6.804688 -8.421875 7.421875 -7.796875 C 8.046875 -7.179688 8.359375 -6.265625 8.359375 -5.046875 C 8.359375 -4.578125 8.347656 -4.257812 8.328125 -4.09375 Z M 7.109375 -5.046875 C 7.085938 -5.960938 6.882812 -6.628906 6.5 -7.046875 C 6.125 -7.460938 5.578125 -7.671875 4.859375 -7.671875 C 4.109375 -7.671875 3.519531 -7.457031 3.09375 -7.03125 C 2.664062 -6.613281 2.40625 -5.953125 2.3125 -5.046875 Z M 7.109375 -5.046875 "/></g></g></g><g fill="#4a90e2" fill-opacity="1"><g transform="translate(216.096969, 88.224319)"><g><path d="M 3.40625 0.15625 C 2.800781 0.15625 2.328125 -0.015625 1.984375 -0.359375 C 1.640625 -0.703125 1.46875 -1.210938 1.46875 -1.890625 L 1.46875 -12.015625 L 2.734375 -12.015625 L 2.734375 -1.984375 C 2.734375 -1.628906 2.800781 -1.367188 2.9375 -1.203125 C 3.070312 -1.046875 3.285156 -0.96875 3.578125 -0.96875 C 3.753906 -0.96875 3.929688 -1 4.109375 -1.0625 L 4.21875 -1.03125 L 4.375 -0.03125 C 4.28125 0.03125 4.144531 0.078125 3.96875 0.109375 C 3.789062 0.140625 3.601562 0.15625 3.40625 0.15625 Z M 3.40625 0.15625 "/></g></g></g><g fill="#4a90e2" fill-opacity="1"><g transform="translate(220.762589, 88.224319)"><g><path d="M 3.40625 0.15625 C 2.800781 0.15625 2.328125 -0.015625 1.984375 -0.359375 C 1.640625 -0.703125 1.46875 -1.210938 1.46875 -1.890625 L 1.46875 -12.015625 L 2.734375 -12.015625 L 2.734375 -1.984375 C 2.734375 -1.628906 2.800781 -1.367188 2.9375 -1.203125 C 3.070312 -1.046875 3.285156 -0.96875 3.578125 -0.96875 C 3.753906 -0.96875 3.929688 -1 4.109375 -1.0625 L 4.21875 -1.03125 L 4.375 -0.03125 C 4.28125 0.03125 4.144531 0.078125 3.96875 0.109375 C 3.789062 0.140625 3.601562 0.15625 3.40625 0.15625 Z M 3.40625 0.15625 "/></g></g></g><g fill="#4a90e2" fill-opacity="1"><g transform="translate(225.428208, 88.224319)"><g><path d="M 1.5 0 L 1.5 -8.578125 L 2.703125 -8.578125 L 2.703125 -7.234375 L 2.859375 -7.1875 C 3.140625 -7.695312 3.503906 -8.082031 3.953125 -8.34375 C 4.398438 -8.601562 4.941406 -8.734375 5.578125 -8.734375 C 6.609375 -8.734375 7.351562 -8.46875 7.8125 -7.9375 C 8.28125 -7.414062 8.515625 -6.609375 8.515625 -5.515625 L 8.515625 0 L 7.25 0 L 7.25 -5.484375 C 7.25 -6.003906 7.179688 -6.421875 7.046875 -6.734375 C 6.910156 -7.046875 6.703125 -7.273438 6.421875 -7.421875 C 6.148438 -7.566406 5.789062 -7.640625 5.34375 -7.640625 C 4.570312 -7.640625 3.945312 -7.382812 3.46875 -6.875 C 3 -6.363281 2.765625 -5.539062 2.765625 -4.40625 L 2.765625 0 Z M 1.5 0 "/></g></g></g><g fill="#4a90e2" fill-opacity="1"><g transform="translate(235.303768, 88.224319)"><g><path d="M 8.171875 -4 L 2.28125 -4 C 2.3125 -2.957031 2.554688 -2.191406 3.015625 -1.703125 C 3.484375 -1.210938 4.125 -0.96875 4.9375 -0.96875 C 5.550781 -0.96875 6.039062 -1.078125 6.40625 -1.296875 C 6.78125 -1.515625 7.078125 -1.859375 7.296875 -2.328125 L 7.453125 -2.328125 L 8.28125 -1.828125 C 8.03125 -1.210938 7.628906 -0.726562 7.078125 -0.375 C 6.535156 -0.0195312 5.820312 0.15625 4.9375 0.15625 C 4.101562 0.15625 3.390625 -0.00390625 2.796875 -0.328125 C 2.203125 -0.648438 1.742188 -1.144531 1.421875 -1.8125 C 1.097656 -2.476562 0.9375 -3.300781 0.9375 -4.28125 C 0.9375 -5.257812 1.101562 -6.082031 1.4375 -6.75 C 1.78125 -7.414062 2.242188 -7.910156 2.828125 -8.234375 C 3.421875 -8.566406 4.097656 -8.734375 4.859375 -8.734375 C 5.953125 -8.734375 6.804688 -8.421875 7.421875 -7.796875 C 8.046875 -7.179688 8.359375 -6.265625 8.359375 -5.046875 C 8.359375 -4.578125 8.347656 -4.257812 8.328125 -4.09375 Z M 7.109375 -5.046875 C 7.085938 -5.960938 6.882812 -6.628906 6.5 -7.046875 C 6.125 -7.460938 5.578125 -7.671875 4.859375 -7.671875 C 4.109375 -7.671875 3.519531 -7.457031 3.09375 -7.03125 C 2.664062 -6.613281 2.40625 -5.953125 2.3125 -5.046875 Z M 7.109375 -5.046875 "/></g></g></g><g fill="#4a90e2" fill-opacity="1"><g transform="translate(244.448382, 88.224319)"><g><path d="M 3.90625 0.15625 C 3.375 0.15625 2.875 0.0859375 2.40625 -0.046875 C 1.945312 -0.191406 1.5625 -0.390625 1.25 -0.640625 C 0.9375 -0.890625 0.710938 -1.171875 0.578125 -1.484375 L 1.328125 -2.25 L 1.5 -2.25 C 1.769531 -1.820312 2.101562 -1.5 2.5 -1.28125 C 2.894531 -1.070312 3.363281 -0.96875 3.90625 -0.96875 C 4.539062 -0.96875 5.019531 -1.085938 5.34375 -1.328125 C 5.675781 -1.578125 5.84375 -1.925781 5.84375 -2.375 C 5.84375 -2.707031 5.742188 -2.984375 5.546875 -3.203125 C 5.347656 -3.421875 5.023438 -3.585938 4.578125 -3.703125 L 3.140625 -4.0625 C 2.359375 -4.25 1.789062 -4.539062 1.4375 -4.9375 C 1.082031 -5.34375 0.90625 -5.84375 0.90625 -6.4375 C 0.90625 -6.90625 1.023438 -7.3125 1.265625 -7.65625 C 1.503906 -8 1.847656 -8.265625 2.296875 -8.453125 C 2.742188 -8.640625 3.273438 -8.734375 3.890625 -8.734375 C 4.679688 -8.734375 5.300781 -8.625 5.75 -8.40625 C 6.207031 -8.1875 6.5625 -7.878906 6.8125 -7.484375 L 6.109375 -6.78125 L 5.953125 -6.78125 C 5.671875 -7.101562 5.367188 -7.332031 5.046875 -7.46875 C 4.722656 -7.613281 4.335938 -7.6875 3.890625 -7.6875 C 3.328125 -7.6875 2.894531 -7.582031 2.59375 -7.375 C 2.289062 -7.175781 2.140625 -6.882812 2.140625 -6.5 C 2.140625 -6.15625 2.242188 -5.875 2.453125 -5.65625 C 2.671875 -5.445312 3.046875 -5.273438 3.578125 -5.140625 L 5 -4.796875 C 5.75 -4.628906 6.285156 -4.335938 6.609375 -3.921875 C 6.941406 -3.515625 7.109375 -3.003906 7.109375 -2.390625 C 7.109375 -1.878906 6.988281 -1.429688 6.75 -1.046875 C 6.507812 -0.671875 6.148438 -0.375 5.671875 -0.15625 C 5.191406 0.0507812 4.601562 0.15625 3.90625 0.15625 Z M 3.90625 0.15625 "/></g></g></g><g fill="#4a90e2" fill-opacity="1"><g transform="translate(252.379934, 88.224319)"><g><path d="M 3.90625 0.15625 C 3.375 0.15625 2.875 0.0859375 2.40625 -0.046875 C 1.945312 -0.191406 1.5625 -0.390625 1.25 -0.640625 C 0.9375 -0.890625 0.710938 -1.171875 0.578125 -1.484375 L 1.328125 -2.25 L 1.5 -2.25 C 1.769531 -1.820312 2.101562 -1.5 2.5 -1.28125 C 2.894531 -1.070312 3.363281 -0.96875 3.90625 -0.96875 C 4.539062 -0.96875 5.019531 -1.085938 5.34375 -1.328125 C 5.675781 -1.578125 5.84375 -1.925781 5.84375 -2.375 C 5.84375 -2.707031 5.742188 -2.984375 5.546875 -3.203125 C 5.347656 -3.421875 5.023438 -3.585938 4.578125 -3.703125 L 3.140625 -4.0625 C 2.359375 -4.25 1.789062 -4.539062 1.4375 -4.9375 C 1.082031 -5.34375 0.90625 -5.84375 0.90625 -6.4375 C 0.90625 -6.90625 1.023438 -7.3125 1.265625 -7.65625 C 1.503906 -8 1.847656 -8.265625 2.296875 -8.453125 C 2.742188 -8.640625 3.273438 -8.734375 3.890625 -8.734375 C 4.679688 -8.734375 5.300781 -8.625 5.75 -8.40625 C 6.207031 -8.1875 6.5625 -7.878906 6.8125 -7.484375 L 6.109375 -6.78125 L 5.953125 -6.78125 C 5.671875 -7.101562 5.367188 -7.332031 5.046875 -7.46875 C 4.722656 -7.613281 4.335938 -7.6875 3.890625 -7.6875 C 3.328125 -7.6875 2.894531 -7.582031 2.59375 -7.375 C 2.289062 -7.175781 2.140625 -6.882812 2.140625 -6.5 C 2.140625 -6.15625 2.242188 -5.875 2.453125 -5.65625 C 2.671875 -5.445312 3.046875 -5.273438 3.578125 -5.140625 L 5 -4.796875 C 5.75 -4.628906 6.285156 -4.335938 6.609375 -3.921875 C 6.941406 -3.515625 7.109375 -3.003906 7.109375 -2.390625 C 7.109375 -1.878906 6.988281 -1.429688 6.75 -1.046875 C 6.507812 -0.671875 6.148438 -0.375 5.671875 -0.15625 C 5.191406 0.0507812 4.601562 0.15625 3.90625 0.15625 Z M 3.90625 0.15625 "/></g></g></g><g fill="#4a90e2" fill-opacity="1"><g transform="translate(260.311487, 88.224319)"><g/></g></g><g fill="#4a90e2" fill-opacity="1"><g transform="translate(264.215055, 88.224319)"><g><path d="M 1.5 3.46875 L 1.5 -8.578125 L 2.765625 -8.578125 L 2.765625 -7.296875 L 2.921875 -7.265625 C 3.554688 -8.242188 4.492188 -8.734375 5.734375 -8.734375 C 6.441406 -8.734375 7.0625 -8.570312 7.59375 -8.25 C 8.132812 -7.925781 8.550781 -7.429688 8.84375 -6.765625 C 9.144531 -6.097656 9.296875 -5.269531 9.296875 -4.28125 C 9.296875 -3.300781 9.140625 -2.476562 8.828125 -1.8125 C 8.515625 -1.15625 8.082031 -0.660156 7.53125 -0.328125 C 6.976562 -0.00390625 6.347656 0.15625 5.640625 0.15625 C 5.054688 0.15625 4.535156 0.0546875 4.078125 -0.140625 C 3.628906 -0.335938 3.242188 -0.671875 2.921875 -1.140625 L 2.765625 -1.109375 L 2.765625 3.46875 Z M 5.359375 -0.96875 C 7.097656 -0.96875 7.96875 -2.070312 7.96875 -4.28125 C 7.96875 -6.5 7.097656 -7.609375 5.359375 -7.609375 C 4.847656 -7.609375 4.394531 -7.488281 4 -7.25 C 3.613281 -7.019531 3.3125 -6.65625 3.09375 -6.15625 C 2.875 -5.664062 2.765625 -5.039062 2.765625 -4.28125 C 2.765625 -3.53125 2.875 -2.90625 3.09375 -2.40625 C 3.3125 -1.914062 3.613281 -1.550781 4 -1.3125 C 4.394531 -1.082031 4.847656 -0.96875 5.359375 -0.96875 Z M 5.359375 -0.96875 "/></g></g></g><g fill="#4a90e2" fill-opacity="1"><g transform="translate(274.448313, 88.224319)"><g><path d="M 4.921875 0.15625 C 4.109375 0.15625 3.398438 -0.0078125 2.796875 -0.34375 C 2.203125 -0.6875 1.742188 -1.191406 1.421875 -1.859375 C 1.097656 -2.523438 0.9375 -3.332031 0.9375 -4.28125 C 0.9375 -5.226562 1.097656 -6.035156 1.421875 -6.703125 C 1.742188 -7.378906 2.203125 -7.882812 2.796875 -8.21875 C 3.398438 -8.5625 4.109375 -8.734375 4.921875 -8.734375 C 5.734375 -8.734375 6.4375 -8.5625 7.03125 -8.21875 C 7.632812 -7.882812 8.097656 -7.378906 8.421875 -6.703125 C 8.742188 -6.035156 8.90625 -5.226562 8.90625 -4.28125 C 8.90625 -3.332031 8.742188 -2.523438 8.421875 -1.859375 C 8.097656 -1.191406 7.632812 -0.6875 7.03125 -0.34375 C 6.4375 -0.0078125 5.734375 0.15625 4.921875 0.15625 Z M 4.921875 -0.96875 C 5.773438 -0.96875 6.425781 -1.238281 6.875 -1.78125 C 7.332031 -2.320312 7.5625 -3.15625 7.5625 -4.28125 C 7.5625 -5.414062 7.332031 -6.253906 6.875 -6.796875 C 6.425781 -7.335938 5.773438 -7.609375 4.921875 -7.609375 C 4.066406 -7.609375 3.410156 -7.335938 2.953125 -6.796875 C 2.492188 -6.253906 2.265625 -5.414062 2.265625 -4.28125 C 2.265625 -3.15625 2.492188 -2.320312 2.953125 -1.78125 C 3.410156 -1.238281 4.066406 -0.96875 4.921875 -0.96875 Z M 4.921875 -0.96875 "/></g></g></g><g fill="#4a90e2" fill-opacity="1"><g transform="translate(284.29277, 88.224319)"><g><path d="M 1.5 0 L 1.5 -8.578125 L 2.703125 -8.578125 L 2.703125 -7.234375 L 2.859375 -7.1875 C 3.253906 -8.164062 4.003906 -8.65625 5.109375 -8.65625 C 5.703125 -8.65625 6.140625 -8.546875 6.421875 -8.328125 L 6.109375 -7.265625 L 5.953125 -7.234375 C 5.628906 -7.390625 5.273438 -7.46875 4.890625 -7.46875 C 4.203125 -7.46875 3.675781 -7.210938 3.3125 -6.703125 C 2.945312 -6.191406 2.765625 -5.359375 2.765625 -4.203125 L 2.765625 0 Z M 1.5 0 "/></g></g></g><g fill="#4a90e2" fill-opacity="1"><g transform="translate(290.917949, 88.224319)"><g><path d="M 5.796875 -1.359375 L 6.203125 -0.453125 C 6.003906 -0.242188 5.738281 -0.09375 5.40625 0 C 5.070312 0.101562 4.71875 0.15625 4.34375 0.15625 C 2.695312 0.15625 1.875 -0.671875 1.875 -2.328125 L 1.875 -7.546875 L 0.390625 -7.546875 L 0.390625 -8.578125 L 1.875 -8.578125 L 1.875 -10.390625 L 3.15625 -10.609375 L 3.15625 -8.578125 L 5.90625 -8.578125 L 5.90625 -7.546875 L 3.15625 -7.546875 L 3.15625 -2.453125 C 3.15625 -1.460938 3.582031 -0.96875 4.4375 -0.96875 C 4.894531 -0.96875 5.296875 -1.097656 5.640625 -1.359375 Z M 5.796875 -1.359375 "/></g></g></g><g fill="#4a90e2" fill-opacity="1"><g transform="translate(297.449816, 88.224319)"><g><path d="M 3.53125 0.15625 C 2.6875 0.15625 2.023438 -0.0625 1.546875 -0.5 C 1.078125 -0.9375 0.84375 -1.566406 0.84375 -2.390625 C 0.84375 -2.898438 0.945312 -3.328125 1.15625 -3.671875 C 1.375 -4.023438 1.703125 -4.3125 2.140625 -4.53125 C 2.578125 -4.75 3.148438 -4.914062 3.859375 -5.03125 C 4.484375 -5.132812 4.957031 -5.25 5.28125 -5.375 C 5.601562 -5.507812 5.820312 -5.65625 5.9375 -5.8125 C 6.050781 -5.976562 6.109375 -6.179688 6.109375 -6.421875 C 6.109375 -6.816406 5.972656 -7.117188 5.703125 -7.328125 C 5.429688 -7.535156 5.003906 -7.640625 4.421875 -7.640625 C 3.859375 -7.640625 3.378906 -7.53125 2.984375 -7.3125 C 2.585938 -7.09375 2.222656 -6.773438 1.890625 -6.359375 L 1.734375 -6.359375 L 1.125 -7.234375 C 1.476562 -7.691406 1.9375 -8.054688 2.5 -8.328125 C 3.0625 -8.597656 3.703125 -8.734375 4.421875 -8.734375 C 5.429688 -8.734375 6.175781 -8.507812 6.65625 -8.0625 C 7.132812 -7.625 7.375 -7.015625 7.375 -6.234375 L 7.375 -1.6875 C 7.375 -1.207031 7.570312 -0.96875 7.96875 -0.96875 C 8.101562 -0.96875 8.234375 -0.992188 8.359375 -1.046875 L 8.46875 -1.015625 L 8.625 -0.125 C 8.53125 -0.0625 8.40625 -0.015625 8.25 0.015625 C 8.09375 0.046875 7.9375 0.0625 7.78125 0.0625 C 7.3125 0.0625 6.957031 -0.0390625 6.71875 -0.25 C 6.476562 -0.457031 6.320312 -0.765625 6.25 -1.171875 L 6.09375 -1.1875 C 5.84375 -0.726562 5.507812 -0.390625 5.09375 -0.171875 C 4.6875 0.046875 4.164062 0.15625 3.53125 0.15625 Z M 3.8125 -0.84375 C 4.289062 -0.84375 4.703125 -0.953125 5.046875 -1.171875 C 5.398438 -1.398438 5.671875 -1.710938 5.859375 -2.109375 C 6.046875 -2.503906 6.140625 -2.960938 6.140625 -3.484375 L 6.140625 -4.578125 L 6 -4.609375 C 5.800781 -4.472656 5.5625 -4.359375 5.28125 -4.265625 C 5.007812 -4.179688 4.628906 -4.101562 4.140625 -4.03125 C 3.640625 -3.957031 3.242188 -3.847656 2.953125 -3.703125 C 2.660156 -3.566406 2.453125 -3.390625 2.328125 -3.171875 C 2.203125 -2.960938 2.140625 -2.703125 2.140625 -2.390625 C 2.140625 -1.878906 2.285156 -1.492188 2.578125 -1.234375 C 2.878906 -0.972656 3.289062 -0.84375 3.8125 -0.84375 Z M 3.8125 -0.84375 "/></g></g></g><g fill="#4a90e2" fill-opacity="1"><g transform="translate(306.322274, 88.224319)"><g><path d="M 3.40625 0.15625 C 2.800781 0.15625 2.328125 -0.015625 1.984375 -0.359375 C 1.640625 -0.703125 1.46875 -1.210938 1.46875 -1.890625 L 1.46875 -12.015625 L 2.734375 -12.015625 L 2.734375 -1.984375 C 2.734375 -1.628906 2.800781 -1.367188 2.9375 -1.203125 C 3.070312 -1.046875 3.285156 -0.96875 3.578125 -0.96875 C 3.753906 -0.96875 3.929688 -1 4.109375 -1.0625 L 4.21875 -1.03125 L 4.375 -0.03125 C 4.28125 0.03125 4.144531 0.078125 3.96875 0.109375 C 3.789062 0.140625 3.601562 0.15625 3.40625 0.15625 Z M 3.40625 0.15625 "/></g></g></g><path stroke-linecap="butt" transform="matrix(0.746681, 0, 0, 0.746681, 121.874753, 65.19383)" fill="none" stroke-linejoin="miter" d="M 0.000330459 1.001199 L 257.514793 1.001199 " stroke="#4a90e2" stroke-width="2" stroke-opacity="1" stroke-miterlimit="4"/></svg>